<svg width="136" height="20" viewBox="0 0 136 20" fill="none" xmlns="http://www.w3.org/2000/svg">
<path d="M11.1484 13.1348C10.6667 13.8249 9.99284 14.3424 9.12695 14.6875C8.26758 15.026 7.26497 15.1953 6.11914 15.1953C4.96029 15.1953 3.93164 14.9251 3.0332 14.3848C2.13477 13.8379 1.43815 13.0632 0.943359 12.0605C0.455078 11.0579 0.204427 9.89583 0.191406 8.57422V7.33398C0.191406 5.19206 0.689453 3.5319 1.68555 2.35352C2.68815 1.17513 4.0944 0.585938 5.9043 0.585938C7.38867 0.585938 8.58333 0.966797 9.48828 1.72852C10.3932 2.48372 10.9466 3.55794 11.1484 4.95117H9.27344C8.92188 3.06966 7.80208 2.12891 5.91406 2.12891C4.65755 2.12891 3.70378 2.57161 3.05273 3.45703C2.4082 4.33594 2.08268 5.61198 2.07617 7.28516V8.44727C2.07617 10.0423 2.44076 11.3118 3.16992 12.2559C3.89909 13.1934 4.88542 13.6621 6.12891 13.6621C6.83203 13.6621 7.44727 13.584 7.97461 13.4277C8.50195 13.2715 8.93815 13.0078 9.2832 12.6367V9.44336H5.99219V7.91992H11.1484V13.1348Z" fill="#41414D"/>
<path d="M13.5215 9.61914C13.5215 8.58398 13.7233 7.65299 14.127 6.82617C14.5371 5.99935 15.1035 5.36133 15.8262 4.91211C16.5553 4.46289 17.3854 4.23828 18.3164 4.23828C19.7552 4.23828 20.9173 4.73633 21.8027 5.73242C22.6947 6.72852 23.1406 8.05339 23.1406 9.70703V9.83398C23.1406 10.8626 22.9421 11.7871 22.5449 12.6074C22.1543 13.4212 21.5911 14.056 20.8555 14.5117C20.1263 14.9674 19.2865 15.1953 18.3359 15.1953C16.9036 15.1953 15.7415 14.6973 14.8496 13.7012C13.9642 12.7051 13.5215 11.3867 13.5215 9.74609V9.61914ZM15.3379 9.83398C15.3379 11.0059 15.6081 11.9466 16.1484 12.6562C16.6953 13.3659 17.4245 13.7207 18.3359 13.7207C19.2539 13.7207 19.9831 13.3626 20.5234 12.6465C21.0638 11.9238 21.334 10.9147 21.334 9.61914C21.334 8.46029 21.0573 7.52279 20.5039 6.80664C19.957 6.08398 19.2279 5.72266 18.3164 5.72266C17.4245 5.72266 16.7051 6.07747 16.1582 6.78711C15.6113 7.49674 15.3379 8.51237 15.3379 9.83398Z" fill="#41414D"/>
<path d="M29.1367 0.78125L32.7891 11.0938L36.4219 0.78125H40.2695V15H37.3301V11.1133L37.623 4.4043L33.7852 15H31.7734L27.9453 4.41406L28.2383 11.1133V15H25.3086V0.78125H29.1367Z" fill="#41414D"/>
<path d="M48.7656 15C48.6354 14.7461 48.541 14.4303 48.4824 14.0527C47.7988 14.8145 46.9102 15.1953 45.8164 15.1953C44.7812 15.1953 43.9219 14.8958 43.2383 14.2969C42.5612 13.6979 42.2227 12.9427 42.2227 12.0312C42.2227 10.9115 42.6361 10.0521 43.4629 9.45312C44.2962 8.85417 45.4974 8.55143 47.0664 8.54492H48.3652V7.93945C48.3652 7.45117 48.2383 7.06055 47.9844 6.76758C47.737 6.47461 47.3431 6.32812 46.8027 6.32812C46.3275 6.32812 45.9531 6.44206 45.6797 6.66992C45.4128 6.89779 45.2793 7.21029 45.2793 7.60742H42.457C42.457 6.99544 42.6458 6.42904 43.0234 5.9082C43.401 5.38737 43.9349 4.98047 44.625 4.6875C45.3151 4.38802 46.0898 4.23828 46.9492 4.23828C48.2513 4.23828 49.2832 4.56706 50.0449 5.22461C50.8132 5.87565 51.1973 6.79362 51.1973 7.97852V12.5586C51.2038 13.5612 51.3438 14.3197 51.6172 14.834V15H48.7656ZM46.4316 13.0371C46.8483 13.0371 47.2324 12.946 47.584 12.7637C47.9355 12.5749 48.196 12.3242 48.3652 12.0117V10.1953H47.3105C45.8978 10.1953 45.1458 10.6836 45.0547 11.6602L45.0449 11.8262C45.0449 12.1777 45.1686 12.4674 45.416 12.6953C45.6634 12.9232 46.002 13.0371 46.4316 13.0371Z" fill="#41414D"/>
<path d="M59.3027 7.08008C58.9186 7.02799 58.5801 7.00195 58.2871 7.00195C57.2194 7.00195 56.5195 7.36328 56.1875 8.08594V15H53.3652V4.43359H56.0312L56.1094 5.69336C56.6758 4.72331 57.4603 4.23828 58.4629 4.23828C58.7754 4.23828 59.0684 4.2806 59.3418 4.36523L59.3027 7.08008Z" fill="#41414D"/>
<path d="M64.5078 10.7617L63.4922 11.7773V15H60.6699V0H63.4922V8.31055L64.0391 7.60742L66.7441 4.43359H70.1328L66.3145 8.83789L70.4648 15H67.2227L64.5078 10.7617Z" fill="#41414D"/>
<path d="M76.0215 15.1953C74.472 15.1953 73.209 14.7201 72.2324 13.7695C71.2624 12.819 70.7773 11.5527 70.7773 9.9707V9.69727C70.7773 8.63607 70.9824 7.6888 71.3926 6.85547C71.8027 6.01562 72.3822 5.37109 73.1309 4.92188C73.8861 4.46615 74.7454 4.23828 75.709 4.23828C77.1543 4.23828 78.2904 4.69401 79.1172 5.60547C79.9505 6.51693 80.3672 7.80924 80.3672 9.48242V10.6348H73.6387C73.7298 11.3249 74.0033 11.8783 74.459 12.2949C74.9212 12.7116 75.5039 12.9199 76.207 12.9199C77.2943 12.9199 78.1439 12.526 78.7559 11.7383L80.1426 13.291C79.7194 13.89 79.1465 14.3587 78.4238 14.6973C77.7012 15.0293 76.9004 15.1953 76.0215 15.1953ZM75.6992 6.52344C75.1393 6.52344 74.6836 6.71224 74.332 7.08984C73.987 7.46745 73.7656 8.00781 73.668 8.71094H77.5938V8.48633C77.5807 7.86133 77.4115 7.37956 77.0859 7.04102C76.7604 6.69596 76.2982 6.52344 75.6992 6.52344Z" fill="#41414D"/>
<path d="M85.3574 1.83594V4.43359H87.1641V6.50391H85.3574V11.7773C85.3574 12.168 85.4323 12.4479 85.582 12.6172C85.7318 12.7865 86.0182 12.8711 86.4414 12.8711C86.7539 12.8711 87.0306 12.8483 87.2715 12.8027V14.9414C86.7181 15.1107 86.1484 15.1953 85.5625 15.1953C83.5833 15.1953 82.5742 14.196 82.5352 12.1973V6.50391H80.9922V4.43359H82.5352V1.83594H85.3574Z" fill="#41414D"/>
<path d="M98.248 9.81445C98.248 11.4421 97.877 12.7474 97.1348 13.7305C96.3991 14.707 95.403 15.1953 94.1465 15.1953C93.0788 15.1953 92.2161 14.8242 91.5586 14.082V19.0625H88.7363V4.43359H91.3535L91.4512 5.46875C92.1348 4.64844 93.0267 4.23828 94.127 4.23828C95.429 4.23828 96.4414 4.72005 97.1641 5.68359C97.8867 6.64714 98.248 7.97526 98.248 9.66797V9.81445ZM95.4258 9.60938C95.4258 8.6263 95.25 7.86784 94.8984 7.33398C94.5534 6.80013 94.0488 6.5332 93.3848 6.5332C92.4994 6.5332 91.8906 6.87174 91.5586 7.54883V11.875C91.9036 12.5716 92.5189 12.9199 93.4043 12.9199C94.752 12.9199 95.4258 11.8164 95.4258 9.60938Z" fill="#41414D"/>
<path d="M102.984 15H100.152V0H102.984V15Z" fill="#41414D"/>
<path d="M111.441 15C111.311 14.7461 111.217 14.4303 111.158 14.0527C110.475 14.8145 109.586 15.1953 108.492 15.1953C107.457 15.1953 106.598 14.8958 105.914 14.2969C105.237 13.6979 104.898 12.9427 104.898 12.0312C104.898 10.9115 105.312 10.0521 106.139 9.45312C106.972 8.85417 108.173 8.55143 109.742 8.54492H111.041V7.93945C111.041 7.45117 110.914 7.06055 110.66 6.76758C110.413 6.47461 110.019 6.32812 109.479 6.32812C109.003 6.32812 108.629 6.44206 108.355 6.66992C108.089 6.89779 107.955 7.21029 107.955 7.60742H105.133C105.133 6.99544 105.322 6.42904 105.699 5.9082C106.077 5.38737 106.611 4.98047 107.301 4.6875C107.991 4.38802 108.766 4.23828 109.625 4.23828C110.927 4.23828 111.959 4.56706 112.721 5.22461C113.489 5.87565 113.873 6.79362 113.873 7.97852V12.5586C113.88 13.5612 114.02 14.3197 114.293 14.834V15H111.441ZM109.107 13.0371C109.524 13.0371 109.908 12.946 110.26 12.7637C110.611 12.5749 110.872 12.3242 111.041 12.0117V10.1953H109.986C108.574 10.1953 107.822 10.6836 107.73 11.6602L107.721 11.8262C107.721 12.1777 107.844 12.4674 108.092 12.6953C108.339 12.9232 108.678 13.0371 109.107 13.0371Z" fill="#41414D"/>
<path d="M120.436 12.9199C120.956 12.9199 121.38 12.7767 121.705 12.4902C122.031 12.2038 122.2 11.8229 122.213 11.3477H124.859C124.853 12.0638 124.658 12.7214 124.273 13.3203C123.889 13.9128 123.362 14.375 122.691 14.707C122.027 15.0326 121.292 15.1953 120.484 15.1953C118.974 15.1953 117.783 14.7168 116.91 13.7598C116.038 12.7962 115.602 11.4681 115.602 9.77539V9.58984C115.602 7.96224 116.035 6.66341 116.9 5.69336C117.766 4.72331 118.954 4.23828 120.465 4.23828C121.786 4.23828 122.844 4.61589 123.639 5.37109C124.439 6.11979 124.846 7.11914 124.859 8.36914H122.213C122.2 7.82227 122.031 7.37956 121.705 7.04102C121.38 6.69596 120.95 6.52344 120.416 6.52344C119.758 6.52344 119.26 6.76432 118.922 7.24609C118.59 7.72135 118.424 8.49609 118.424 9.57031V9.86328C118.424 10.9505 118.59 11.7318 118.922 12.207C119.254 12.6823 119.758 12.9199 120.436 12.9199Z" fill="#41414D"/>
<path d="M131.334 15.1953C129.785 15.1953 128.521 14.7201 127.545 13.7695C126.575 12.819 126.09 11.5527 126.09 9.9707V9.69727C126.09 8.63607 126.295 7.6888 126.705 6.85547C127.115 6.01562 127.695 5.37109 128.443 4.92188C129.199 4.46615 130.058 4.23828 131.021 4.23828C132.467 4.23828 133.603 4.69401 134.43 5.60547C135.263 6.51693 135.68 7.80924 135.68 9.48242V10.6348H128.951C129.042 11.3249 129.316 11.8783 129.771 12.2949C130.234 12.7116 130.816 12.9199 131.52 12.9199C132.607 12.9199 133.456 12.526 134.068 11.7383L135.455 13.291C135.032 13.89 134.459 14.3587 133.736 14.6973C133.014 15.0293 132.213 15.1953 131.334 15.1953ZM131.012 6.52344C130.452 6.52344 129.996 6.71224 129.645 7.08984C129.299 7.46745 129.078 8.00781 128.98 8.71094H132.906V8.48633C132.893 7.86133 132.724 7.37956 132.398 7.04102C132.073 6.69596 131.611 6.52344 131.012 6.52344Z" fill="#41414D"/>
</svg>
