<svg width="22" height="24" viewBox="0 0 22 24" fill="none" xmlns="http://www.w3.org/2000/svg">
<path fill-rule="evenodd" clip-rule="evenodd" d="M3.53035 0.396521C3.71938 0.146762 4.01451 0 4.32773 0H17.6387C17.9519 0 18.247 0.146762 18.436 0.396521L21.7577 4.78547C21.8885 4.95452 21.9664 5.16664 21.9664 5.39695V20.7863C21.9664 21.6375 21.6251 22.452 21.0205 23.0511C20.4162 23.6499 19.5986 23.9847 18.7479 23.9847H3.21849C2.3678 23.9847 1.55015 23.6499 0.945884 23.0511C0.341312 22.452 0 21.6375 0 20.7863V5.39695V5.39694C0 5.16662 0.0778676 4.95448 0.208713 4.78542L3.53035 0.396521ZM17.1414 2L18.9554 4.39694H3.01094L4.82501 2H17.1414ZM2 20.7863V6.39694H19.9664V20.7863C19.9664 21.1012 19.8402 21.405 19.6127 21.6305C19.3849 21.8563 19.074 21.9847 18.7479 21.9847H3.21849C2.89242 21.9847 2.5815 21.8563 2.35368 21.6305C2.12615 21.405 2 21.1012 2 20.7863ZM7.5462 9.79388C7.5462 9.2416 7.09849 8.79388 6.5462 8.79388C5.99392 8.79388 5.5462 9.2416 5.5462 9.79388C5.5462 11.2282 6.12125 12.6019 7.14187 13.6133C8.16218 14.6244 9.54411 15.1908 10.9832 15.1908C12.4222 15.1908 13.8042 14.6244 14.8245 13.6133C15.8451 12.6019 16.4202 11.2282 16.4202 9.79388C16.4202 9.2416 15.9724 8.79388 15.4202 8.79388C14.8679 8.79388 14.4202 9.2416 14.4202 9.79388C14.4202 10.6919 14.0603 11.5549 13.4167 12.1927C12.7728 12.8308 11.8976 13.1908 10.9832 13.1908C10.0687 13.1908 9.19353 12.8308 8.54966 12.1927C7.90609 11.5549 7.5462 10.6919 7.5462 9.79388Z" fill="#E83F5B"/>
</svg>
